<?xml version="1.0" standalone="no"?>
<!DOCTYPE svg PUBLIC "-//W3C//DTD SVG 20010904//EN"
 "http://www.w3.org/TR/2001/REC-SVG-20010904/DTD/svg10.dtd">
<svg version="1.0" xmlns="http://www.w3.org/2000/svg"
 width="500.000000pt" height="500.000000pt" viewBox="0 0 500.000000 500.000000"
 preserveAspectRatio="xMidYMid meet">

<g transform="translate(0.000000,500.000000) scale(0.100000,-0.100000)"
fill="#000000" stroke="none">
<path d="M0 2500 l0 -2500 2500 0 2500 0 0 2500 0 2500 -2500 0 -2500 0 0
-2500z m1773 1739 c253 -39 427 -274 387 -522 -12 -77 -67 -191 -114 -236
l-36 -35 57 -105 c30 -58 59 -109 62 -113 4 -5 32 1 62 11 150 53 350 54 507
3 80 -26 176 -75 247 -127 20 -14 32 -3 239 204 l219 219 -26 53 c-110 236
-14 505 220 616 62 30 88 36 161 41 203 11 363 -83 450 -265 36 -76 37 -81 37
-193 0 -113 -1 -117 -38 -192 -79 -162 -245 -268 -420 -268 -53 0 -148 24
-206 52 l-43 21 -219 -219 -219 -219 45 -64 c50 -72 100 -192 121 -291 40
-189 -5 -438 -106 -590 -16 -25 -30 -48 -30 -52 0 -4 88 -88 196 -187 l197
-180 29 20 c44 32 136 60 213 66 78 6 166 -12 237 -48 58 -30 153 -122 188
-184 79 -138 78 -313 -1 -451 -44 -78 -143 -165 -225 -199 -61 -26 -81 -29
-174 -29 -145 0 -216 29 -316 128 -140 140 -179 315 -109 490 14 34 25 65 25
68 0 6 -378 352 -390 356 -4 2 -32 -15 -62 -38 -68 -52 -173 -104 -263 -131
-91 -27 -272 -36 -368 -19 -212 37 -425 176 -545 357 -39 59 -22 59 -148 4
l-50 -22 4 -59 c17 -231 -156 -443 -393 -482 -209 -35 -433 107 -496 314 -17
56 -20 88 -17 166 3 83 8 106 35 162 62 128 180 224 313 254 87 20 130 20 205
1 92 -24 144 -53 212 -118 l63 -60 67 27 c102 40 97 31 77 126 -20 99 -15 272
10 365 40 147 131 293 250 401 l73 66 -61 110 c-52 93 -63 108 -81 103 -11 -3
-49 -8 -85 -12 -231 -21 -441 147 -482 385 -16 94 -1 181 47 278 61 125 196
223 330 243 33 5 61 9 63 10 2 0 36 -4 75 -10z"/>
<path d="M1611 4043 c-63 -22 -134 -96 -156 -162 -42 -127 13 -268 128 -328
71 -38 180 -39 247 -5 92 48 140 118 147 216 17 204 -172 347 -366 279z"/>
<path d="M3691 4043 c-93 -33 -171 -145 -171 -245 0 -104 58 -201 145 -247 71
-37 178 -37 250 1 28 14 60 37 72 50 36 39 66 109 71 163 17 201 -175 346
-367 278z"/>
<path d="M2270 3066 c-186 -56 -324 -175 -406 -351 -44 -96 -58 -174 -51 -298
8 -171 64 -301 181 -418 116 -118 255 -178 426 -186 189 -9 335 45 469 172
208 199 260 491 135 753 -46 96 -176 230 -269 279 -144 75 -334 95 -485 49z"/>
<path d="M1014 2134 c-182 -65 -233 -306 -94 -445 176 -176 482 -30 457 218
-18 175 -196 286 -363 227z"/>
<path d="M3691 1483 c-93 -33 -171 -145 -171 -245 0 -104 58 -201 145 -247 71
-37 178 -37 250 1 28 14 60 37 72 50 36 39 66 109 71 163 17 201 -175 346
-367 278z"/>
</g>
</svg>
